HIERARCHY
ROOT Hips
{
	OFFSET 0.000000 0.000000 0.000000
	CHANNELS 6 Xposition Yposition Zposition Xrotation Yrotation Zrotation
	JOINT LeftUpLeg_virtual
	{
		OFFSET 0.000000 0.000000 0.000000
		CHANNELS 3 Xrotation Yrotation Zrotation
		JOINT LeftUpLeg
		{
			OFFSET 15.427100 -6.655098 0.678600
			CHANNELS 3 Xrotation Yrotation Zrotation
			JOINT LeftLeg
			{
				OFFSET 4.081073 -39.591068 13.024000
				CHANNELS 3 Xrotation Yrotation Zrotation
				JOINT LeftFoot
				{
					OFFSET -4.081074 -37.707932 -15.979700
					CHANNELS 3 Xrotation Yrotation Zrotation
					JOINT LeftToeBase
					{
						OFFSET 5.346399 -15.068900 20.645000
						CHANNELS 3 Xrotation Yrotation Zrotation
						JOINT LeftToe_End
						{
							OFFSET 2.754700 0.931300 11.300900
							CHANNELS 3 Xrotation Yrotation Zrotation
							End Site
							{
								OFFSET 0 0 0
							}
						}
					}
				}
			}
		}
	}
	JOINT RightUpLeg_virtual
	{
		OFFSET 0.000000 0.000000 0.000000
		CHANNELS 3 Xrotation Yrotation Zrotation
		JOINT RightUpLeg
		{
			OFFSET -15.569500 -6.655098 0.678600
			CHANNELS 3 Xrotation Yrotation Zrotation
			JOINT RightLeg
			{
				OFFSET -4.081825 -39.591045 13.023800
				CHANNELS 3 Xrotation Yrotation Zrotation
				JOINT RightFoot
				{
					OFFSET 4.081824 -37.707954 -15.979600
					CHANNELS 3 Xrotation Yrotation Zrotation
					JOINT RightToeBase
					{
						OFFSET -5.346400 -15.068900 20.645000
						CHANNELS 3 Xrotation Yrotation Zrotation
						JOINT RightToe_End
						{
							OFFSET -2.754700 0.931300 11.300900
							CHANNELS 3 Xrotation Yrotation Zrotation
							End Site
							{
								OFFSET 0 0 0
							}
						}
					}
				}
			}
		}
	}
	JOINT Spine_virtual
	{
		OFFSET 0.000000 0.000000 0.000000
		CHANNELS 3 Xrotation Yrotation Zrotation
		JOINT Spine
		{
			OFFSET -0.279200 12.230698 -2.892100
			CHANNELS 3 Xrotation Yrotation Zrotation
			JOINT Spine1
			{
				OFFSET -0.232667 10.192268 -1.242267
				CHANNELS 3 Xrotation Yrotation Zrotation
				JOINT Spine1_split
				{
					OFFSET -0.232667 10.192268 -1.242267
					CHANNELS 3 Xrotation Yrotation Zrotation
					JOINT Spine2
					{
						OFFSET -0.232667 10.192268 -1.242267
						CHANNELS 3 Xrotation Yrotation Zrotation
						JOINT Neck_virtual
						{
							OFFSET 0.000000 0.000000 0.000000
							CHANNELS 3 Xrotation Yrotation Zrotation
							JOINT Neck
							{
								OFFSET -0.418800 17.814194 8.416900
								CHANNELS 3 Xrotation Yrotation Zrotation
								JOINT Head
								{
									OFFSET 0.000000 7.031097 3.806800
									CHANNELS 3 Xrotation Yrotation Zrotation
									JOINT HeadTop_End
									{
										OFFSET 0.000000 24.646606 12.978600
										CHANNELS 3 Xrotation Yrotation Zrotation
										End Site
										{
											OFFSET 0 0 0
										}
									}
								}
							}
						}
						JOINT LeftShoulder_virtual
						{
							OFFSET 0.000000 0.000000 0.000000
							CHANNELS 3 Xrotation Yrotation Zrotation
							JOINT LeftShoulder
							{
								OFFSET 8.476499 7.247704 -3.868750
								CHANNELS 3 Xrotation Yrotation Zrotation
								JOINT LeftShoulder_split
								{
									OFFSET 8.476499 7.247704 -3.868750
									CHANNELS 3 Xrotation Yrotation Zrotation
									JOINT LeftArm
									{
										OFFSET 9.308998 -2.777710 0.208600
										CHANNELS 3 Xrotation Yrotation Zrotation
										JOINT LeftForeArm
										{
											OFFSET 29.972298 0.000000 0.000000
											CHANNELS 3 Xrotation Yrotation Zrotation
											JOINT LeftHand
											{
												OFFSET 26.026505 0.000000 0.000000
												CHANNELS 3 Xrotation Yrotation Zrotation
												End Site
												{
													OFFSET 0 0 0
												}
											}
										}
									}
								}
							}
						}
						JOINT RightShoulder_virtual
						{
							OFFSET 0.000000 0.000000 0.000000
							CHANNELS 3 Xrotation Yrotation Zrotation
							JOINT RightShoulder
							{
								OFFSET -7.570500 7.247704 -3.868750
								CHANNELS 3 Xrotation Yrotation Zrotation
								JOINT RightShoulder_split
								{
									OFFSET -7.570500 7.247704 -3.868750
									CHANNELS 3 Xrotation Yrotation Zrotation
									JOINT RightArm
									{
										OFFSET -9.308998 -2.777710 0.208500
										CHANNELS 3 Xrotation Yrotation Zrotation
										JOINT RightForeArm
										{
											OFFSET -29.972300 0.000000 0.000000
											CHANNELS 3 Xrotation Yrotation Zrotation
											JOINT RightHand
											{
												OFFSET -26.026505 0.000000 0.000000
												CHANNELS 3 Xrotation Yrotation Zrotation
												End Site
												{
													OFFSET 0 0 0
												}
											}
										}
									}
								}
							}
						}
					}
				}
			}
		}
	}
}
MOTION
Frames: 8
Frame Time: 0.03333333
2.094523 49.694443 13.541924 0.000000 0.000000 0.000000 8.178624 7.028821 1.584646 -96.246996 -9.563891 11.438870 82.970290 4.420512 -0.816807 13.219250 -6.256091 -11.256988 -4.959329 0.322283 -0.009733 0.000000 0.000000 0.000000 7.912094 7.336701 1.644914 -94.973562 17.295431 -15.140965 83.667365 -3.207350 -1.512070 9.618528 0.635833 10.584047 2.984334 1.297765 -0.151440 0.000000 0.000000 0.000000 9.004475 4.787873 1.197128 5.513954 -2.247943 -2.661298 15.586302 -1.158901 -0.759681 1.069639 0.342992 0.226282 0.000000 0.000000 0.000000 16.852114 -1.187383 -0.570430 -2.077248 -2.756967 -1.313215 -52.876681 2.616803 -8.186072 0.000000 0.000000 0.000000 16.253735 -1.419950 -0.411297 0.575331 -15.790245 4.428855 -4.210744 -4.751425 -1.729352 -61.007769 -27.726453 -15.577182 177.030007 -69.707176 178.795788 0.000000 0.000000 0.000000 15.182606 -1.713721 -0.491079 1.610270 14.572847 -2.801286 3.928834 0.139607 4.153301 -85.596019 29.613750 30.317328 -178.476108 53.856212 175.108237 0.000000 0.000000 0.000000 
2.058352 49.776833 13.426388 0.000000 0.000000 0.000000 8.631792 6.772927 1.332315 -96.464401 -9.966322 11.434362 82.603502 4.279025 -0.703758 13.243406 -6.449551 -11.259304 -4.837168 0.354923 -0.034987 0.000000 0.000000 0.000000 8.338161 7.111906 1.396742 -95.115766 17.198734 -14.826961 83.172976 -3.259317 -1.695985 9.481569 0.687460 10.714440 3.131264 1.282956 -0.121784 0.000000 0.000000 0.000000 9.461108 4.805391 0.929763 5.367648 -2.257612 -2.621093 15.935007 -1.182656 -0.670121 0.769207 0.264532 0.224726 0.000000 0.000000 0.000000 17.140978 -1.131828 -0.560451 0.052662 -2.864465 -1.356493 -51.746411 3.032304 -8.027147 0.000000 0.000000 0.000000 16.638853 -1.397080 -0.361688 0.551742 -14.751291 5.231321 -3.758604 -4.559861 -1.603734 -60.057826 -26.994986 -15.734671 177.558404 -68.952911 179.501005 0.000000 0.000000 0.000000 15.712379 -1.689668 -0.441491 1.354078 13.611816 -2.305422 3.303161 0.800726 3.986410 -84.035034 30.212871 29.506752 -178.406918 54.094880 175.288377 0.000000 0.000000 0.000000 
1.982773 49.834419 13.359489 0.000000 0.000000 0.000000 9.129994 6.532674 1.151962 -96.670324 -10.284550 11.319412 82.217466 4.218820 -0.607861 13.231028 -6.556776 -11.235706 -4.749995 0.375742 -0.011247 0.000000 0.000000 0.000000 8.830969 6.981588 1.206115 -95.270204 17.191993 -14.578532 82.649667 -3.340625 -1.826024 9.372861 0.654425 10.763644 3.195076 1.265859 -0.036699 0.000000 0.000000 0.000000 9.956466 4.937868 0.657233 5.305457 -2.271291 -2.557607 16.444375 -1.152785 -0.642629 0.574209 0.371768 0.355246 0.000000 0.000000 0.000000 17.505782 -1.040216 -0.599041 2.907406 -2.927701 -1.594319 -50.308226 3.160950 -8.080032 0.000000 0.000000 0.000000 17.219059 -1.339819 -0.380550 0.565911 -14.119574 6.081061 -2.928249 -4.815376 -1.510785 -57.194416 -25.539942 -15.737768 178.248526 -67.522007 -179.627719 0.000000 0.000000 0.000000 16.475067 -1.594977 -0.453769 1.091564 12.858847 -1.597535 2.933689 1.629501 3.892735 -81.062679 31.260150 28.257637 -178.352645 54.956679 175.483283 0.000000 0.000000 0.000000 
1.885717 49.833015 13.343784 0.000000 0.000000 0.000000 9.643986 6.326707 1.082899 -96.868318 -10.433169 11.132670 81.924984 4.256265 -0.570639 13.181815 -6.525365 -11.169266 -4.727742 0.385303 0.059629 0.000000 0.000000 0.000000 9.355980 6.967941 1.114735 -95.474310 17.268561 -14.474552 82.225027 -3.427328 -1.881004 9.324422 0.579122 10.776408 3.121423 1.248305 0.071479 0.000000 0.000000 0.000000 10.446162 5.137625 0.456218 5.295934 -2.295472 -2.513665 16.939772 -1.100956 -0.671913 0.506551 0.359664 0.435084 0.000000 0.000000 0.000000 17.823426 -0.941039 -0.672085 5.960209 -2.922782 -2.017275 -48.927681 2.960808 -8.369965 0.000000 0.000000 0.000000 17.778450 -1.267573 -0.465785 0.599716 -13.947208 6.746071 -1.898417 -5.577767 -1.537671 -52.899296 -24.113378 -15.459933 178.802878 -65.670575 -178.923581 0.000000 0.000000 0.000000 17.231046 -1.461745 -0.503785 0.890435 12.379554 -0.887096 2.681281 2.127096 3.824819 -77.175428 32.488447 26.587222 -178.408380 56.051572 175.787158 0.000000 0.000000 0.000000 
1.782921 49.786453 13.430752 0.000000 0.000000 0.000000 10.137326 6.225114 1.125102 -97.076038 -10.378402 10.951949 81.804588 4.375996 -0.608852 13.096716 -6.333926 -11.076161 -4.722184 0.389180 0.150655 0.000000 0.000000 0.000000 9.881152 7.060792 1.127865 -95.743666 17.412036 -14.553617 81.968567 -3.498401 -1.845790 9.321689 0.504427 10.796906 3.004209 1.236531 0.164872 0.000000 0.000000 0.000000 10.906906 5.383800 0.369962 5.323981 -2.333905 -2.512817 17.226121 -1.065042 -0.733921 0.647698 0.396233 0.541632 0.000000 0.000000 0.000000 17.964075 -0.857296 -0.731669 8.592433 -2.831316 -2.530324 -47.885824 2.546482 -8.866742 0.000000 0.000000 0.000000 18.094634 -1.215849 -0.576240 0.641714 -14.320588 7.147584 -1.087748 -6.295936 -1.575454 -48.516285 -23.193029 -14.718385 179.055677 -64.024322 -178.575979 0.000000 0.000000 0.000000 17.713681 -1.330094 -0.554902 0.769059 12.179228 -0.437051 2.457741 2.253107 3.781434 -73.286864 33.551037 24.735636 -178.596770 56.701717 176.160974 0.000000 0.000000 0.000000 
1.714979 49.710403 13.553989 0.000000 0.000000 0.000000 10.591054 6.195894 1.237057 -97.305061 -10.147333 10.829780 81.853848 4.547314 -0.706550 12.995346 -6.013491 -10.978815 -4.667039 0.395190 0.226351 0.000000 0.000000 0.000000 10.392749 7.196909 1.211240 -96.064910 17.585577 -14.777509 81.896024 -3.537997 -1.733683 9.320070 0.467555 10.819863 2.957857 1.235774 0.222344 0.000000 0.000000 0.000000 11.350763 5.615181 0.404335 5.372937 -2.382909 -2.547525 17.140821 -1.069993 -0.804197 0.751021 0.241016 0.538821 0.000000 0.000000 0.000000 17.819455 -0.809222 -0.756711 10.319505 -2.712212 -3.025079 -47.330919 1.902633 -9.515812 0.000000 0.000000 0.000000 17.973959 -1.184507 -0.676483 0.692457 -15.035055 7.269103 -0.408371 -6.482057 -1.415966 -45.404294 -22.996120 -13.265444 179.059952 -63.129410 -178.483867 0.000000 0.000000 0.000000 17.712665 -1.234199 -0.584408 0.742177 12.144411 -0.499327 2.323203 2.297341 3.522208 -70.529442 34.062358 23.277327 -178.910043 56.409614 176.595060 0.000000 0.000000 0.000000 
1.703053 49.609665 13.709736 0.000000 0.000000 0.000000 10.975567 6.227587 1.368780 -97.557805 -9.820452 10.800054 82.009788 4.708858 -0.815994 12.883416 -5.666751 -10.950501 -4.572961 0.404942 0.280541 0.000000 0.000000 0.000000 10.851741 7.339698 1.320524 -96.361190 17.752444 -15.098758 81.953070 -3.552180 -1.558236 9.327239 0.484215 10.835028 2.959822 1.246783 0.233115 0.000000 0.000000 0.000000 11.761651 5.756602 0.549350 5.425147 -2.425222 -2.600202 16.577492 -1.124872 -0.849445 0.770391 -0.029677 0.585655 0.000000 0.000000 0.000000 17.275311 -0.802597 -0.730697 10.856031 -2.578546 -3.405820 -47.124873 1.129286 -10.250755 0.000000 0.000000 0.000000 17.356976 -1.190981 -0.730984 0.753921 -15.837959 7.135311 -0.368739 -5.896712 -1.357277 -44.171189 -23.470726 -11.055124 178.941845 -63.142135 -178.523537 0.000000 0.000000 0.000000 17.109936 -1.200086 -0.572421 0.814067 12.225064 -1.097839 2.182189 2.212812 3.084399 -69.589608 33.833342 22.770876 -179.192786 55.246463 176.952279 0.000000 0.000000 0.000000 
1.753448 49.521057 13.873398 0.000000 0.000000 0.000000 11.234844 6.269151 1.468194 -97.807086 -9.513326 10.866387 82.237390 4.817796 -0.889475 12.832682 -5.390265 -11.017061 -4.481792 0.413099 0.312895 0.000000 0.000000 0.000000 11.212384 7.388490 1.420724 -96.585562 17.880061 -15.419142 82.068719 -3.550908 -1.360086 9.379865 0.545305 10.850253 2.943736 1.266476 0.202533 0.000000 0.000000 0.000000 12.138605 5.751385 0.763410 5.491278 -2.441036 -2.647453 15.514945 -1.218642 -0.861427 0.797356 -0.271128 0.598358 0.000000 0.000000 0.000000 16.273400 -0.833666 -0.663662 10.208418 -2.428163 -3.617979 -46.984666 0.344392 -10.956546 0.000000 0.000000 0.000000 16.222983 -1.230200 -0.740672 0.809564 -16.483731 6.732847 -0.612625 -4.981104 -1.324561 -44.623323 -24.394577 -8.527485 178.784477 -63.578966 -178.668063 0.000000 0.000000 0.000000 15.917438 -1.218758 -0.520090 0.963539 12.357105 -2.164204 2.053580 2.041430 2.616662 -70.413916 32.667921 23.477312 -179.360781 53.670650 177.147295 0.000000 0.000000 0.000000 
